<svg xmlns="http://www.w3.org/2000/svg" viewBox="0 0 382.77 122.68"><defs><style>.cls-1{fill:#fff;}</style></defs><title>logo</title><g id="Layer_2" data-name="Layer 2"><g id="Layer_1-2" data-name="Layer 1"><rect class="cls-1" x="91.85" width="3.31" height="122.68" rx="0.46"/><path class="cls-1" d="M75.53,30.91a.34.34,0,0,0,.35-.35v-6.9a.35.35,0,0,0-.35-.35H24.68V18.18H64.39a.35.35,0,0,0,.35-.35v-6.9a.35.35,0,0,0-.35-.35H15.75a.35.35,0,0,0-.35.35V23.31H.35a.35.35,0,0,0-.35.35V100a.35.35,0,0,0,.35.35H15.4V112.7a.35.35,0,0,0,.35.35H64.39a.35.35,0,0,0,.35-.35v-6.9a.35.35,0,0,0-.35-.35H24.68v-5.13H75.53a.35.35,0,0,0,.35-.35v-6.9a.35.35,0,0,0-.35-.35H24.68V65.61H61a.35.35,0,0,0,.35-.34v-6.9A.35.35,0,0,0,61,58H24.68V30.91ZM15.4,58.37V92.72H9.27V65.61h3.85a.35.35,0,0,0,.35-.34v-6.9a.35.35,0,0,0-.35-.35H9.27V30.91H15.4Z"/><path class="cls-1" d="M113.23,12.12h31.53v9.09H123.58V31.83H142.8v9.09H123.58V52h21.53v9.09H113.23Z"/><path class="cls-1" d="M196.27,61.05H162.58V12.12h10.35V52h23.34Z"/><path class="cls-1" d="M215.15,17.71h-5.6V12.12h21.53v5.59h-5.59V55.46h5.59v5.59H209.55V55.46h5.6Z"/><path class="cls-1" d="M260.72,36.17,245.9,12.12h12.51L266.59,26l1.89,4.82L270.3,26l8.53-13.91h11.25L274.7,35.68l16.15,25.37H278.48l-9.37-14.89-2.1-5-2,5-9.36,14.89H244.36Z"/><path class="cls-1" d="M309.72,17.71h-5.59V12.12h21.53v5.59h-5.59V55.46h5.59v5.59H304.13V55.46h5.59Z"/><path class="cls-1" d="M342.78,12.61c1.12-.19,2.34-.36,3.67-.53s2.67-.29,4-.38,2.67-.16,3.95-.21,2.46-.07,3.53-.07a42.35,42.35,0,0,1,7.31.63,20.83,20.83,0,0,1,6.43,2.17,12.54,12.54,0,0,1,4.58,4.22A12.22,12.22,0,0,1,378,25.19a15.79,15.79,0,0,1-3,9.89,14.76,14.76,0,0,1-8.21,5.28l3.7,2.17,12.24,18.52h-12L358.58,42.11l-5.45-.84V61.05H342.78Zm15.87,7.9c-1.07,0-2.11,0-3.11,0a12.83,12.83,0,0,0-2.41.25V34.28h4.4a12.53,12.53,0,0,0,7-1.68Q367,30.92,367,26.8a5.48,5.48,0,0,0-2.17-4.69A10.32,10.32,0,0,0,358.65,20.51Z"/><path class="cls-1" d="M113.73,113.39v-32h20.21v3.72H117.77V95.47h13.78V99H117.77v10.66h16.17v3.72Z"/><path class="cls-1" d="M164.78,106.45c.42-1.47.86-2.94,1.31-4.41s.88-2.94,1.3-4.41l5-16.22h4.46l-10.61,32h-3.31l-10.62-32h4.41l5.1,16.31,2.72,8.78Z"/><path class="cls-1" d="M197.63,113.39v-32h20.22v3.72H201.67V95.47h13.79V99H201.67v10.66h16.18v3.72Z"/><path class="cls-1" d="M259.7,113.39l-11.7-18-4.24-7-.14,0v25h-4v-32h4l11.26,17.41,4.64,7.68.13-.1v-25h4.05v32Z"/><path class="cls-1" d="M297.2,85v28.44h-4V85h-9.1V81.41H306.3V85Z"/><path class="cls-1" d="M347.19,104.29a8.73,8.73,0,0,1-.85,3.93,8.63,8.63,0,0,1-2.36,2.94,10.93,10.93,0,0,1-3.63,1.86,15.89,15.89,0,0,1-4.65.64,19.12,19.12,0,0,1-3.14-.27,21.22,21.22,0,0,1-6.39-2.18,14.34,14.34,0,0,1-2.73-1.91L326,106a13.26,13.26,0,0,0,4.46,2.8,15.11,15.11,0,0,0,5.42,1,11.48,11.48,0,0,0,2.82-.33,6.56,6.56,0,0,0,2.26-1,4.91,4.91,0,0,0,1.49-1.73,5.33,5.33,0,0,0,.55-2.52,3.94,3.94,0,0,0-.6-2.26,4.75,4.75,0,0,0-1.6-1.44,10.29,10.29,0,0,0-2.35-1c-.89-.24-1.84-.46-2.85-.64-1.25-.24-2.49-.51-3.72-.8a11.09,11.09,0,0,1-3.31-1.36,7.17,7.17,0,0,1-2.39-2.5,8.66,8.66,0,0,1,2.29-10.92,10.43,10.43,0,0,1,3.39-1.72,14.08,14.08,0,0,1,4.06-.57,20.34,20.34,0,0,1,5.75.73,13.1,13.1,0,0,1,4.5,2.35l-2.25,3.44a15.87,15.87,0,0,0-3.75-1.88,12.88,12.88,0,0,0-4.25-.69A7.8,7.8,0,0,0,331,86.37a4.45,4.45,0,0,0-1.7,3.72,3.65,3.65,0,0,0,.57,2.09,4.55,4.55,0,0,0,1.72,1.45,13.21,13.21,0,0,0,2.82,1c1.11.3,2.39.58,3.82.85,1,.22,2,.48,3.1.79a9.33,9.33,0,0,1,2.89,1.4,7.15,7.15,0,0,1,2.13,2.5A8.77,8.77,0,0,1,347.19,104.29Z"/></g></g></svg>